<svg width="92" height="28" viewBox="0 0 92 28" fill="none" xmlns="http://www.w3.org/2000/svg">
<g clip-path="url(#clip0_1_34)">
<path d="M28.3114 19.765H32.0633C34.3306 19.765 35.9272 18.4399 35.9272 16.556C35.9272 15.151 34.9053 14.1133 33.4046 13.9057C34.586 13.6662 35.4482 12.7242 35.4482 11.5747C35.4482 9.64281 33.8995 8.42944 31.4248 8.42944H28.3114V19.765ZM29.7164 18.392V14.688H32.0633C33.4684 14.688 34.4583 15.4064 34.4583 16.556C34.4583 17.6895 33.4684 18.392 32.0633 18.392H29.7164ZM29.7164 13.3149V9.80245H31.4248C32.9894 9.80245 33.9793 10.489 33.9793 11.5747C33.9793 12.6444 32.9894 13.3149 31.4248 13.3149H29.7164Z" fill="#E8E8E8"/>
<path d="M38.9575 17.5139C38.9575 16.3005 39.9793 16.3165 41.2247 16.077L43.2045 15.7098V16.2686C43.2045 17.8332 42.1188 18.7432 40.7457 18.8071C39.5163 18.871 38.9575 18.1685 38.9575 17.5139ZM37.5206 17.5139C37.5206 19.0307 38.8936 19.9247 40.5701 19.9566C41.8953 19.9247 42.8852 19.2382 43.2524 18.4718L43.3003 19.765H44.5457V14.656C44.5457 12.2931 43.1725 11.1117 41.1289 11.1117C39.3727 11.1117 37.9995 12.1814 37.6643 13.7939L39.1491 13.9057C39.3567 13.0436 40.107 12.4209 41.1289 12.4209C42.3583 12.4209 43.1566 13.1074 43.1725 14.5124L40.7138 14.9594C38.8457 15.2947 37.5206 15.7257 37.5206 17.5139Z" fill="#E8E8E8"/>
<path d="M51.865 13.9217L53.2382 13.8258C52.9667 12.1814 51.6096 11.1117 49.8373 11.1117C48.1129 11.1117 46.5802 12.0696 46.5802 13.7939C46.5802 15.3585 48.2407 15.9013 49.7735 16.2686C50.6676 16.4761 51.849 16.6039 51.849 17.5299C51.849 18.424 50.8751 18.6475 49.981 18.6475C48.8155 18.6475 47.9054 18.0089 47.7298 17.003L46.3088 17.0988C46.4366 18.855 48.0331 19.9566 49.981 19.9566C51.6415 19.9566 53.286 19.2702 53.286 17.6097C53.286 15.9812 51.5936 15.4703 50.0129 15.0712C49.1188 14.8316 48.0172 14.6401 48.0172 13.714C48.0172 12.8519 48.8314 12.4209 49.6936 12.4209C50.7634 12.4209 51.6734 12.9797 51.865 13.9217Z" fill="#E8E8E8"/>
<path d="M58.4367 19.9566C60.0652 19.9566 61.5022 18.9667 61.9972 17.3702L60.5282 17.2585C60.1451 18.1366 59.3308 18.6475 58.4367 18.6475C56.9998 18.6475 56.1376 17.6576 56.0099 15.9653H62.1249V15.3745L62.1089 15.3426C61.9652 12.3091 60.2888 11.1117 58.4367 11.1117C56.0897 11.1117 54.5569 12.8359 54.5569 15.5342C54.5569 18.2324 56.0897 19.9566 58.4367 19.9566ZM56.0418 14.7518C56.2653 13.283 57.1115 12.4209 58.4367 12.4209C59.4425 12.4209 60.3845 12.9957 60.624 14.7518H56.0418Z" fill="#E8E8E8"/>
<path d="M63.7986 19.765H65.2036V14.7518H70.3767V19.765H71.7817V8.42944H70.3767V13.3788H65.2036V8.42944H63.7986V19.765Z" fill="#E8E8E8"/>
<path d="M80.6532 19.765V11.3033H79.2801V16.3484C79.2801 17.913 78.4019 18.7432 77.1087 18.7432C75.8953 18.7432 75.3843 17.913 75.3843 16.3484V11.3033H74.0113V16.7475C74.0113 18.5357 74.9373 19.9566 76.8214 19.9566C77.923 19.9566 78.8969 19.4617 79.344 18.3761V19.765H80.6532Z" fill="#E8E8E8"/>
<path d="M82.7761 8.42944V19.765H84.0215L84.0694 18.5836C84.5324 19.4458 85.4265 19.9566 86.7357 19.9566C89.1945 19.9566 90.3124 17.8492 90.3124 15.5342C90.3124 13.2192 89.1945 11.1117 86.7357 11.1117C85.4904 11.1117 84.6282 11.5587 84.1492 12.3889V8.42944H82.7761ZM84.0215 15.5342C84.0215 13.9057 84.708 12.357 86.4483 12.357C88.2046 12.357 88.8752 13.8897 88.8752 15.5342C88.8752 17.1148 88.2046 18.6475 86.4483 18.6475C84.708 18.6475 84.0215 17.0988 84.0215 15.5342Z" fill="#E8E8E8"/>
<mask id="mask0_1_34" style="mask-type:luminance" maskUnits="userSpaceOnUse" x="0" y="0" width="21" height="28">
<path d="M16.3199 0.833008H4.22794C1.89291 0.833008 0 2.72587 0 5.06083V23.1559C0 25.4909 1.89291 27.3837 4.22794 27.3837H16.3199C18.6549 27.3837 20.5478 25.4909 20.5478 23.1559V5.06083C20.5478 2.72587 18.6549 0.833008 16.3199 0.833008Z" fill="white"/>
</mask>
<g mask="url(#mask0_1_34)">
<path d="M16.3199 0.833008H4.22794C1.89291 0.833008 0 2.72587 0 5.06083V23.1559C0 25.4909 1.89291 27.3837 4.22794 27.3837H16.3199C18.6549 27.3837 20.5478 25.4909 20.5478 23.1559V5.06083C20.5478 2.72587 18.6549 0.833008 16.3199 0.833008Z" fill="black"/>
<path d="M35.7476 5.02626L7.28264 33.4903L8.79674 35.0044L37.2617 6.54031L35.7476 5.02626Z" fill="#FF6C00" fill-opacity="0.6"/>
<path opacity="0.5" d="M35.7476 2.02931L7.28264 30.4934L8.79674 32.0074L37.2617 3.54336L35.7476 2.02931Z" fill="#FF6C00"/>
<path opacity="0.4" d="M32.7484 2.02931L4.28343 30.4934L5.79753 32.0074L34.2625 3.54336L32.7484 2.02931Z" fill="#FF6C00"/>
<path opacity="0.35" d="M29.7501 2.02931L1.28511 30.4934L2.79921 32.0074L31.2642 3.54336L29.7501 2.02931Z" fill="#FF6C00"/>
<path opacity="0.3" d="M28.894 -0.11232L0.42897 28.3517L1.94307 29.8658L30.4081 1.40173L28.894 -0.11232Z" fill="#FF6C00"/>
<path opacity="0.25" d="M28.4659 -2.68156L0.00088501 25.7825L1.51498 27.2966L29.98 -1.16751L28.4659 -2.68156Z" fill="#FF6C00"/>
<path opacity="0.2" d="M27.1807 -4.39479L-1.28424 24.0693L0.229858 25.5833L28.6948 -2.88074L27.1807 -4.39479Z" fill="#FF6C00"/>
<path opacity="0.15" d="M24.1833 -4.39479L-4.28166 24.0693L-2.76756 25.5833L25.6974 -2.88074L24.1833 -4.39479Z" fill="#FF6C00"/>
<path opacity="0.1" d="M21.185 -4.39479L-7.27998 24.0693L-5.76588 25.5833L22.6991 -2.88074L21.185 -4.39479Z" fill="#FF6C00"/>
</g>
<path d="M16.3199 1.47537H4.22794C2.24769 1.47537 0.64238 3.08064 0.64238 5.06084V23.1559C0.64238 25.1361 2.24769 26.7414 4.22794 26.7414H16.3199C18.3002 26.7414 19.9055 25.1361 19.9055 23.1559V5.06084C19.9055 3.08064 18.3002 1.47537 16.3199 1.47537Z" stroke="url(#paint0_linear_1_34)" stroke-width="1.4244"/>
</g>
<defs>
<linearGradient id="paint0_linear_1_34" x1="10.2739" y1="0.833014" x2="10.2739" y2="27.3838" gradientUnits="userSpaceOnUse">
<stop stop-color="#FF9B51"/>
<stop offset="1" stop-color="#FF6C00"/>
</linearGradient>
<clipPath id="clip0_1_34">
<rect width="92" height="27.96" fill="white" transform="translate(0 0.015625)"/>
</clipPath>
</defs>
</svg>
